<svg width="39" height="38" viewBox="0 0 39 38" fill="none" xmlns="http://www.w3.org/2000/svg">
<g id="bx:bxs-star">
<path id="Vector" d="M34.9028 14.5489C34.8039 14.2575 34.6218 14.0015 34.3791 13.8124C34.1363 13.6233 33.8435 13.5095 33.5367 13.485L24.5644 12.772L20.6817 4.17733C20.5581 3.90052 20.3569 3.6654 20.1026 3.50036C19.8483 3.33533 19.5517 3.24742 19.2485 3.24725C18.9453 3.24709 18.6485 3.33467 18.394 3.49943C18.1395 3.66419 17.9382 3.89908 17.8142 4.17576L13.9316 12.772L4.95918 13.485C4.65772 13.5088 4.36953 13.6191 4.12907 13.8024C3.88862 13.9858 3.70609 14.2346 3.60332 14.519C3.50055 14.8034 3.48189 15.1114 3.54957 15.4061C3.61726 15.7009 3.76842 15.9699 3.98498 16.1809L10.6155 22.6446L8.27051 32.799C8.19931 33.1063 8.22213 33.428 8.33602 33.7222C8.4499 34.0165 8.64959 34.2697 8.90918 34.449C9.16876 34.6284 9.47625 34.7255 9.79175 34.7279C10.1072 34.7303 10.4162 34.6379 10.6785 34.4625L19.248 28.7495L27.8175 34.4625C28.0855 34.6405 28.4017 34.7321 28.7234 34.7251C29.0451 34.718 29.3569 34.6126 29.617 34.423C29.877 34.2335 30.0727 33.9688 30.1778 33.6647C30.283 33.3606 30.2924 33.0315 30.205 32.7219L27.3264 22.6494L34.4653 16.225C34.9327 15.8032 35.1043 15.1453 34.9028 14.5489Z" fill="#F3CD03"/>
</g>
</svg>
