<svg width="61" height="61" viewBox="0 0 61 61" fill="none" xmlns="http://www.w3.org/2000/svg">
<g id="Mask Group">
<mask id="mask0_1_1716" style="mask-type:alpha" maskUnits="userSpaceOnUse" x="0" y="0" width="61" height="61">
<path id="Union" fill-rule="evenodd" clip-rule="evenodd" d="M10.8602 6.98953C15.3375 2.12909 23.6204 -0.415788 31.7382 0.0555887C32.314 0.0890273 32.7253 0.616532 32.6374 1.18661L28.8229 25.9073C28.6941 26.7423 27.652 27.0511 27.089 26.4211L10.8696 8.2723C10.5415 7.90516 10.5266 7.35169 10.8602 6.98953ZM35.3489 1.44039L31.3788 26.1428C31.2381 27.0186 32.2227 27.6305 32.9457 27.1164L52.8426 12.9675C53.2263 12.6947 53.371 12.1904 53.1542 11.7725C51.2985 8.1942 45.9516 2.02779 36.4452 0.622271C35.9176 0.544261 35.4335 0.913781 35.3489 1.44039ZM54.7942 15.9465L33.8436 28.8734C33.0869 29.3403 33.2702 30.4886 34.1347 30.6967L57.9585 36.4321C58.4414 36.5483 58.9396 36.2934 59.0993 35.823C61.6564 28.2898 58.9676 18.5562 55.7849 15.9704C55.5007 15.7395 55.1058 15.7542 54.7942 15.9465ZM33.2501 31.9206L56.3967 39.3449C56.903 39.5073 57.1944 40.0348 57.0078 40.5327C55.7048 44.009 51.4606 50.9084 45.673 55.0403C45.2059 55.3738 44.5602 55.2154 44.2754 54.7171L32.0765 33.3689C31.6238 32.5768 32.3814 31.6419 33.2501 31.9206ZM17.246 56.0445L26.6591 33.0537C26.9856 32.2564 26.2181 31.4469 25.4045 31.7306L2.24756 39.8041C1.72465 39.9864 1.44712 40.5595 1.65813 41.0715C4.16654 47.1579 9.93697 52.6951 15.8047 56.5054C16.3222 56.8415 17.0122 56.6155 17.246 56.0445ZM21.7771 59.3911C30.5827 61.5485 38.3529 59.3388 41.939 57.59C42.4275 57.3518 42.5908 56.7541 42.3292 56.2777L29.9619 33.7515C29.5331 32.9704 28.374 33.0979 28.1251 33.9534L21.0818 58.1646C20.9265 58.6987 21.2368 59.2587 21.7771 59.3911ZM9.96004 10.8532L25.2343 27.4752C25.73 28.0147 25.4964 28.8866 24.7973 29.1059L1.67787 36.3591C1.18153 36.5148 0.646465 36.2663 0.508429 35.7647C-0.880132 30.7195 0.193071 18.7267 8.5769 10.7924C8.97114 10.4193 9.59276 10.4535 9.96004 10.8532Z" fill="#FF8A35"/>
</mask>
<g mask="url(#mask0_1_1716)">
<g id="Group 2">
<path id="Vector 8" d="M4.50003 32C3.30003 28.4 6.00005 26.75 7.50002 21C10.5 9.5 18.084 5.16667 23 4.5C33 1.5 34 5.99998 43 7.49998C53.7693 9.29487 56.1667 23.6666 55 29C53.8333 32.1666 51.5 39.4 51.5 43C51.5 47.5 39.5 55.5 32 56.5C24.5 57.5 11.5535 50.5977 11 47C10 40.5 6.00003 36.5 4.50003 32Z" stroke="#FF6331" stroke-opacity="0.5" stroke-width="0.5"/>
<path id="Vector 9" d="M34.0826 52.6516C30.7707 53.9003 24.1932 51.309 21.8267 50.4684C13.5735 49.483 10.7793 41.5605 9.97924 37.0055C6.81953 27.7997 8.90827 28.7494 9.97924 20.3114C11.2608 10.2145 23.5597 6.26121 28.5732 7.15397C31.5671 8.12553 38.3914 9.90498 41.7494 9.90499C51.9837 9.90499 55.7534 21.3884 53.0608 27.8506C50.3479 34.3615 50.6946 45.4231 47.3614 46.0695C41.3392 47.2374 38.2224 51.0907 34.0826 52.6516Z" stroke="#FF6331" stroke-opacity="0.5" stroke-width="0.5"/>
<path id="Vector 10" d="M51.08 21.9269C52.4199 24.5747 49.9697 33.3839 49.2911 35.3899C48.7618 42.2579 43.2066 46.0402 38.945 46.9994C30.4072 50.2096 30.4769 51.5083 22.9037 48.8529C9.69917 44.2228 10.457 32.5805 11.0563 28.3892C11.8281 25.8573 11.9784 25.3622 11.8152 22.5941C11.3179 14.158 24.211 8.82366 30.4429 10.618C36.7218 12.4259 45.4691 12.6426 47.6756 14.3877C51.08 17.0803 49.4052 18.6172 51.08 21.9269Z" stroke="#FF6331" stroke-opacity="0.5" stroke-width="0.5"/>
<path id="Vector 11" d="M21.1907 13.6734C23.328 12.0878 31.4859 12.9185 33.3619 13.2143C39.5128 12.6414 40 14.6748 45.5 15.5C51 17.8252 44.9999 25.5 48 31C50.4999 37.5 42.5 44.5 32.9682 48.0716C30.6133 47.7731 27.422 46.4363 25 47C17.6185 48.718 12.8584 38.7804 13.5 33C14.1465 27.176 11 25.236 15.0425 17.8252C16.9066 14.4079 18.5189 15.6554 21.1907 13.6734Z" stroke="#FF6331" stroke-opacity="0.5" stroke-width="0.5"/>
<path id="Vector 12" d="M17.5 41C15.9308 39.4718 16.0063 33.0631 16 31.5C14.726 26.5779 17.0525 24.5771 17 20C18.1662 15.2257 21 19 25.5 15C27.5 12 48 17 46.3191 21C46.3862 22.9526 45.5428 30.5481 46.3191 32.4418C48.6853 38.2133 41.2369 43.3871 36.4561 43.6257C31.6393 43.866 30.4766 46.6775 23.9241 44.3671C20.9026 43.3018 19.4615 42.9102 17.5 41Z" stroke="#FF6331" stroke-opacity="0.5" stroke-width="0.5"/>
<path id="Vector 13" d="M43.4762 19.6315C44.7684 21.0013 43.5 24.5 44.4187 27.8463C45.3339 32.1207 43.2626 33.7546 43.1411 37.6881C41.9655 41.7466 39.6688 38.4014 35.6578 41.6735C22.5001 47 16.4037 39.1364 17.9932 35.7617C18.0067 34.082 19.0077 27.5884 18.4097 25.9335C16.5874 20.8898 23.1737 16.7168 27.289 16.6859C31.4353 16.6549 32.4557 14.777 38 17C40.5567 18.0251 41.8608 17.9193 43.4762 19.6315Z" stroke="#FF6331" stroke-opacity="0.5" stroke-width="0.5"/>
<path id="Vector 14" d="M43.4762 19.6315C44.7684 21.0013 43.5 24.5 44.4187 27.8463C45.3339 32.1207 43.2626 33.7546 43.1411 37.6881C41.9655 41.7466 39.6688 38.4014 35.6578 41.6735C22.5001 47 16.4037 39.1364 17.9932 35.7617C18.0067 34.082 19.0077 27.5884 18.4097 25.9335C16.5874 20.8898 23.1737 16.7168 27.289 16.6859C31.4353 16.6549 32.4557 14.777 38 17C40.5567 18.0251 41.8608 17.9193 43.4762 19.6315Z" stroke="#FF6331" stroke-opacity="0.5" stroke-width="0.5"/>
<path id="Vector 15" d="M21.0531 36.7249C20.0689 35.638 21.1121 32.9346 20.4501 30.315C19.8057 26.973 21.4442 25.7341 21.6013 22.6739C22.5811 19.5333 24.3158 22.1739 27.4902 19.6906C37.8177 15.7536 42.4382 21.9721 41.1472 24.5738C41.1099 25.8811 40.2274 30.9202 40.6665 32.218C42.0048 36.1733 36.8113 39.3169 33.6072 39.2755C30.379 39.2336 29.5548 40.6793 25.2741 38.8605C23.3003 38.0218 22.2834 38.0835 21.0531 36.7249Z" stroke="#FF6331" stroke-opacity="0.5" stroke-width="0.5"/>
</g>
</g>
</g>
</svg>
