<svg width="61" height="61" viewBox="0 0 61 61" fill="none" xmlns="http://www.w3.org/2000/svg">
<path id="Union" fill-rule="evenodd" clip-rule="evenodd" d="M10.8602 6.98953C15.3375 2.12909 23.6204 -0.415788 31.7382 0.0555887C32.314 0.0890273 32.7253 0.616532 32.6374 1.18661L28.8229 25.9073C28.6941 26.7423 27.652 27.0511 27.089 26.4211L10.8696 8.2723C10.5415 7.90516 10.5266 7.35169 10.8602 6.98953ZM35.3489 1.44039L31.3788 26.1428C31.2381 27.0186 32.2227 27.6305 32.9457 27.1164L52.8426 12.9675C53.2263 12.6947 53.371 12.1904 53.1542 11.7725C51.2985 8.1942 45.9516 2.02779 36.4452 0.622271C35.9176 0.544261 35.4335 0.913781 35.3489 1.44039ZM54.7942 15.9465L33.8436 28.8734C33.0869 29.3403 33.2702 30.4886 34.1347 30.6967L57.9585 36.4321C58.4414 36.5483 58.9396 36.2934 59.0993 35.823C61.6564 28.2898 58.9676 18.5562 55.7849 15.9704C55.5007 15.7395 55.1058 15.7542 54.7942 15.9465ZM33.2501 31.9206L56.3967 39.3449C56.903 39.5073 57.1944 40.0348 57.0078 40.5327C55.7048 44.009 51.4606 50.9084 45.673 55.0403C45.2059 55.3738 44.5602 55.2154 44.2754 54.7171L32.0765 33.3689C31.6238 32.5768 32.3814 31.6419 33.2501 31.9206ZM17.246 56.0445L26.6591 33.0537C26.9856 32.2564 26.2181 31.4469 25.4045 31.7306L2.24756 39.8041C1.72465 39.9864 1.44712 40.5595 1.65813 41.0715C4.16654 47.1579 9.93697 52.6951 15.8047 56.5054C16.3222 56.8415 17.0122 56.6155 17.246 56.0445ZM21.7771 59.3911C30.5827 61.5485 38.3529 59.3388 41.939 57.59C42.4275 57.3518 42.5908 56.7541 42.3292 56.2777L29.9619 33.7515C29.5331 32.9704 28.374 33.0979 28.1251 33.9534L21.0818 58.1646C20.9265 58.6987 21.2368 59.2587 21.7771 59.3911ZM9.96004 10.8532L25.2343 27.4752C25.73 28.0147 25.4964 28.8866 24.7973 29.1059L1.67787 36.3591C1.18153 36.5148 0.646465 36.2663 0.508429 35.7647C-0.880132 30.7195 0.193071 18.7267 8.5769 10.7924C8.97114 10.4193 9.59276 10.4535 9.96004 10.8532Z" fill="url(#paint0_radial_1_1709)"/>
<defs>
<radialGradient id="paint0_radial_1_1709" cx="0" cy="0" r="1" gradientUnits="userSpaceOnUse" gradientTransform="translate(30.0589 30.1421) rotate(90) scale(30.1421 30.0589)">
<stop stop-color="#FF531D"/>
<stop offset="1" stop-color="#FF8A35"/>
</radialGradient>
</defs>
</svg>
