<svg width="82" height="82" viewBox="0 0 82 82" fill="none" xmlns="http://www.w3.org/2000/svg">
<g filter="url(#filter0_d_1_1512)">
<circle cx="39" cy="40" r="35" fill="#FF9E44"/>
<circle cx="39" cy="40" r="33" fill="#FFC553"/>
<path fill-rule="evenodd" clip-rule="evenodd" d="M19.8602 16.9895C24.3375 12.1291 32.6204 9.58421 40.7382 10.0556C41.314 10.089 41.7253 10.6165 41.6374 11.1866L37.8229 35.9073C37.6941 36.7423 36.652 37.0511 36.089 36.4211L19.8696 18.2723C19.5415 17.9052 19.5266 17.3517 19.8602 16.9895ZM44.3489 11.4404L40.3788 36.1428C40.2381 37.0186 41.2227 37.6305 41.9457 37.1164L61.8426 22.9675C62.2263 22.6947 62.371 22.1904 62.1542 21.7725C60.2985 18.1942 54.9516 12.0278 45.4452 10.6223C44.9176 10.5443 44.4335 10.9138 44.3489 11.4404ZM63.7942 25.9465L42.8436 38.8734C42.0869 39.3403 42.2702 40.4886 43.1347 40.6967L66.9585 46.4321C67.4414 46.5483 67.9396 46.2934 68.0993 45.823C70.6564 38.2898 67.9676 28.5562 64.7849 25.9704C64.5007 25.7395 64.1058 25.7542 63.7942 25.9465ZM42.2501 41.9206L65.3967 49.3449C65.903 49.5073 66.1944 50.0348 66.0078 50.5327C64.7048 54.009 60.4606 60.9084 54.673 65.0403C54.2059 65.3738 53.5602 65.2154 53.2754 64.7171L41.0765 43.3689C40.6238 42.5768 41.3814 41.6419 42.2501 41.9206ZM26.246 66.0445L35.6591 43.0537C35.9856 42.2564 35.2181 41.4469 34.4045 41.7306L11.2476 49.8041C10.7246 49.9864 10.4471 50.5595 10.6581 51.0715C13.1665 57.1579 18.937 62.6951 24.8047 66.5054C25.3222 66.8415 26.0122 66.6155 26.246 66.0445ZM30.7771 69.3911C39.5827 71.5485 47.3529 69.3388 50.939 67.59C51.4275 67.3518 51.5908 66.7541 51.3292 66.2777L38.9619 43.7515C38.5331 42.9704 37.374 43.0979 37.1251 43.9534L30.0818 68.1646C29.9265 68.6987 30.2368 69.2587 30.7771 69.3911ZM18.96 20.8532L34.2343 37.4752C34.73 38.0147 34.4964 38.8866 33.7973 39.1059L10.6779 46.3591C10.1815 46.5148 9.64647 46.2663 9.50843 45.7647C8.11987 40.7195 9.19307 28.7267 17.5769 20.7924C17.9711 20.4193 18.5928 20.4535 18.96 20.8532Z" fill="url(#paint0_radial_1_1512)"/>
<mask id="mask0_1_1512" style="mask-type:alpha" maskUnits="userSpaceOnUse" x="9" y="10" width="61" height="61">
<path fill-rule="evenodd" clip-rule="evenodd" d="M19.8602 16.9895C24.3375 12.1291 32.6204 9.58421 40.7382 10.0556C41.314 10.089 41.7253 10.6165 41.6374 11.1866L37.8229 35.9073C37.6941 36.7423 36.652 37.0511 36.089 36.4211L19.8696 18.2723C19.5415 17.9052 19.5266 17.3517 19.8602 16.9895ZM44.3489 11.4404L40.3788 36.1428C40.2381 37.0186 41.2227 37.6305 41.9457 37.1164L61.8426 22.9675C62.2263 22.6947 62.371 22.1904 62.1542 21.7725C60.2985 18.1942 54.9516 12.0278 45.4452 10.6223C44.9176 10.5443 44.4335 10.9138 44.3489 11.4404ZM63.7942 25.9465L42.8436 38.8734C42.0869 39.3403 42.2702 40.4886 43.1347 40.6967L66.9585 46.4321C67.4414 46.5483 67.9396 46.2934 68.0993 45.823C70.6564 38.2898 67.9676 28.5562 64.7849 25.9704C64.5007 25.7395 64.1058 25.7542 63.7942 25.9465ZM42.2501 41.9206L65.3967 49.3449C65.903 49.5073 66.1944 50.0348 66.0078 50.5327C64.7048 54.009 60.4606 60.9084 54.673 65.0403C54.2059 65.3738 53.5602 65.2154 53.2754 64.7171L41.0765 43.3689C40.6238 42.5768 41.3814 41.6419 42.2501 41.9206ZM26.246 66.0445L35.6591 43.0537C35.9856 42.2564 35.2181 41.4469 34.4045 41.7306L11.2476 49.8041C10.7246 49.9864 10.4471 50.5595 10.6581 51.0715C13.1665 57.1579 18.937 62.6951 24.8047 66.5054C25.3222 66.8415 26.0122 66.6155 26.246 66.0445ZM30.7771 69.3911C39.5827 71.5485 47.3529 69.3388 50.939 67.59C51.4275 67.3518 51.5908 66.7541 51.3292 66.2777L38.9619 43.7515C38.5331 42.9704 37.374 43.0979 37.1251 43.9534L30.0818 68.1646C29.9265 68.6987 30.2368 69.2587 30.7771 69.3911ZM18.96 20.8532L34.2343 37.4752C34.73 38.0147 34.4964 38.8866 33.7973 39.1059L10.6779 46.3591C10.1815 46.5148 9.64647 46.2663 9.50843 45.7647C8.11987 40.7195 9.19307 28.7267 17.5769 20.7924C17.9711 20.4193 18.5928 20.4535 18.96 20.8532Z" fill="#FF8A35"/>
</mask>
<g mask="url(#mask0_1_1512)">
<path d="M13.5 42C12.3 38.4 15.0001 36.75 16.5 31C19.5 19.5 27.084 15.1667 32 14.5C42 11.5 43 16 52 17.5C62.7693 19.2949 65.1667 33.6666 64 39C62.8333 42.1666 60.5 49.4 60.5 53C60.5 57.5 48.5 65.5 41 66.5C33.5 67.5 20.5535 60.5977 20 57C19 50.5 15 46.5 13.5 42Z" stroke="#FF6331" stroke-opacity="0.5" stroke-width="0.5"/>
<path d="M43.0826 62.6516C39.7707 63.9003 33.1932 61.309 30.8267 60.4684C22.5735 59.483 19.7793 51.5605 18.9792 47.0055C15.8195 37.7997 17.9083 38.7494 18.9792 30.3114C20.2608 20.2145 32.5597 16.2612 37.5732 17.154C40.5671 18.1255 47.3914 19.905 50.7494 19.905C60.9837 19.905 64.7534 31.3884 62.0608 37.8506C59.3479 44.3615 59.6946 55.4231 56.3614 56.0695C50.3392 57.2374 47.2224 61.0907 43.0826 62.6516Z" stroke="#FF6331" stroke-opacity="0.5" stroke-width="0.5"/>
<path d="M60.08 31.9269C61.4199 34.5747 58.9697 43.3839 58.2911 45.3899C57.7618 52.2579 52.2066 56.0402 47.945 56.9994C39.4072 60.2096 39.4769 61.5083 31.9037 58.8529C18.6992 54.2228 19.457 42.5805 20.0563 38.3892C20.8281 35.8573 20.9784 35.3622 20.8152 32.5941C20.3179 24.158 33.211 18.8237 39.4429 20.618C45.7218 22.4259 54.4691 22.6426 56.6756 24.3877C60.08 27.0803 58.4052 28.6172 60.08 31.9269Z" stroke="#FF6331" stroke-opacity="0.5" stroke-width="0.5"/>
<path d="M30.1907 23.6734C32.328 22.0878 40.4859 22.9185 42.3619 23.2143C48.5128 22.6414 49 24.6748 54.5 25.5C60 27.8252 53.9999 35.5 57 41C59.4999 47.5 51.5 54.5 41.9682 58.0716C39.6133 57.7731 36.422 56.4363 34 57C26.6185 58.718 21.8584 48.7804 22.5 43C23.1465 37.176 20 35.236 24.0425 27.8252C25.9066 24.4079 27.5189 25.6554 30.1907 23.6734Z" stroke="#FF6331" stroke-opacity="0.5" stroke-width="0.5"/>
<path d="M26.5 51C24.9308 49.4718 25.0063 43.0631 25 41.5C23.726 36.5779 26.0525 34.5771 26 30C27.1662 25.2257 30 29 34.5 25C36.5 22 57 27 55.3191 31C55.3862 32.9526 54.5428 40.5481 55.3191 42.4418C57.6853 48.2133 50.2369 53.3871 45.4561 53.6257C40.6393 53.866 39.4766 56.6775 32.9241 54.3671C29.9026 53.3018 28.4615 52.9102 26.5 51Z" stroke="#FF6331" stroke-opacity="0.5" stroke-width="0.5"/>
<path d="M52.4762 29.6315C53.7684 31.0013 52.5 34.5 53.4187 37.8463C54.3339 42.1207 52.2626 43.7546 52.1411 47.6881C50.9655 51.7466 48.6688 48.4014 44.6578 51.6735C31.5001 57 25.4037 49.1364 26.9932 45.7617C27.0067 44.082 28.0077 37.5884 27.4097 35.9335C25.5874 30.8898 32.1737 26.7168 36.289 26.6859C40.4353 26.6549 41.4557 24.777 47 27C49.5567 28.0251 50.8608 27.9193 52.4762 29.6315Z" stroke="#FF6331" stroke-opacity="0.5" stroke-width="0.5"/>
<path d="M52.4762 29.6315C53.7684 31.0013 52.5 34.5 53.4187 37.8463C54.3339 42.1207 52.2626 43.7546 52.1411 47.6881C50.9655 51.7466 48.6688 48.4014 44.6578 51.6735C31.5001 57 25.4037 49.1364 26.9932 45.7617C27.0067 44.082 28.0077 37.5884 27.4097 35.9335C25.5874 30.8898 32.1737 26.7168 36.289 26.6859C40.4353 26.6549 41.4557 24.777 47 27C49.5567 28.0251 50.8608 27.9193 52.4762 29.6315Z" stroke="#FF6331" stroke-opacity="0.5" stroke-width="0.5"/>
<path d="M30.0531 46.7249C29.0689 45.638 30.1121 42.9346 29.4501 40.315C28.8057 36.973 30.4442 35.7341 30.6013 32.6739C31.5811 29.5333 33.3158 32.1739 36.4902 29.6906C46.8177 25.7536 51.4382 31.9721 50.1472 34.5738C50.1099 35.8811 49.2274 40.9202 49.6665 42.218C51.0048 46.1733 45.8113 49.3169 42.6072 49.2755C39.379 49.2336 38.5548 50.6793 34.2741 48.8605C32.3003 48.0218 31.2834 48.0835 30.0531 46.7249Z" stroke="#FF6331" stroke-opacity="0.5" stroke-width="0.5"/>
</g>
</g>
<defs>
<filter id="filter0_d_1_1512" x="0" y="0" width="82" height="82" filterUnits="userSpaceOnUse" color-interpolation-filters="sRGB">
<feFlood flood-opacity="0" result="BackgroundImageFix"/>
<feColorMatrix in="SourceAlpha" type="matrix" values="0 0 0 0 0 0 0 0 0 0 0 0 0 0 0 0 0 0 127 0" result="hardAlpha"/>
<feOffset dx="2" dy="1"/>
<feGaussianBlur stdDeviation="3"/>
<feColorMatrix type="matrix" values="0 0 0 0 0 0 0 0 0 0 0 0 0 0 0 0 0 0 0.25 0"/>
<feBlend mode="normal" in2="BackgroundImageFix" result="effect1_dropShadow_1_1512"/>
<feBlend mode="normal" in="SourceGraphic" in2="effect1_dropShadow_1_1512" result="shape"/>
</filter>
<radialGradient id="paint0_radial_1_1512" cx="0" cy="0" r="1" gradientUnits="userSpaceOnUse" gradientTransform="translate(39.0589 40.1421) rotate(90) scale(30.1421 30.0589)">
<stop stop-color="#FF531D"/>
<stop offset="1" stop-color="#FF8A35"/>
</radialGradient>
</defs>
</svg>
