<svg width="82" height="82" viewBox="0 0 82 82" fill="none" xmlns="http://www.w3.org/2000/svg">
<g filter="url(#filter0_d_1_1539)">
<circle cx="43" cy="40" r="35" fill="#FFDB5A"/>
<circle cx="43" cy="40" r="33" fill="#FFE4B0"/>
<path fill-rule="evenodd" clip-rule="evenodd" d="M25.6642 64.6789C19.8106 61.6122 15.2086 54.2701 13.5629 46.307C13.4461 45.7421 13.8492 45.2083 14.4226 45.1457L39.2882 42.432C40.1281 42.3403 40.6961 43.267 40.2333 43.9738L26.9008 64.3378C26.6311 64.7498 26.1003 64.9074 25.6642 64.6789ZM13.966 42.4609L38.8542 39.9022C39.7366 39.8115 40.0728 38.702 39.3891 38.1367L20.5726 22.5798C20.2098 22.2798 19.6852 22.2706 19.3377 22.5881C16.3616 25.3067 11.7892 32.0675 12.892 41.6137C12.9532 42.1435 13.4354 42.5154 13.966 42.4609ZM22.945 19.9237L40.8539 36.8147C41.5007 37.4247 42.5624 36.9505 42.5397 36.0616L41.9136 11.5652C41.9009 11.0686 41.5257 10.6534 41.03 10.6209C33.0916 10.1007 24.3856 15.2171 22.7116 18.9606C22.5622 19.2948 22.6786 19.6725 22.945 19.9237ZM43.9508 36.5993L45.1314 12.3198C45.1572 11.7888 45.5913 11.3708 46.1205 11.4222C49.8156 11.7811 57.5784 14.0949 63.0674 18.6158C63.5105 18.9807 63.5246 19.6455 63.117 20.0495L45.6535 37.3581C45.0056 38.0003 43.9065 37.5105 43.9508 36.5993ZM71.3948 45.8143L46.7512 42.6724C45.8965 42.5634 45.3133 43.5143 45.7979 44.2268L59.5897 64.505C59.9012 64.963 60.5265 65.0827 60.9665 64.7464C66.1963 60.7482 70.0513 53.7412 72.2131 47.0872C72.4038 46.5003 72.007 45.8924 71.3948 45.8143ZM73.4547 40.5715C73.2595 31.5075 69.1141 24.574 66.4967 21.5627C66.1401 21.1526 65.5205 21.1495 65.1281 21.5255L46.5703 39.3016C45.9269 39.9179 46.35 41.0045 47.2408 41.0235L72.45 41.5605C73.0061 41.5723 73.4667 41.1276 73.4547 40.5715ZM29.6292 64.5484L41.7315 45.4926C42.1243 44.874 43.027 44.8741 43.4198 45.4926L56.4095 65.947C56.6884 66.3861 56.5868 66.9672 56.1381 67.2304C51.6242 69.8774 39.7623 71.9448 29.9284 65.9002C29.466 65.6159 29.3382 65.0066 29.6292 64.5484Z" fill="url(#paint0_radial_1_1539)"/>
<mask id="mask0_1_1539" style="mask-type:alpha" maskUnits="userSpaceOnUse" x="12" y="10" width="62" height="60">
<path fill-rule="evenodd" clip-rule="evenodd" d="M25.6642 64.6789C19.8106 61.6122 15.2086 54.2701 13.5629 46.307C13.4461 45.7421 13.8492 45.2083 14.4226 45.1457L39.2882 42.432C40.1281 42.3403 40.6961 43.267 40.2333 43.9738L26.9008 64.3378C26.6311 64.7498 26.1003 64.9074 25.6642 64.6789ZM13.966 42.4609L38.8542 39.9022C39.7366 39.8115 40.0728 38.702 39.3891 38.1367L20.5726 22.5798C20.2098 22.2798 19.6852 22.2706 19.3377 22.5881C16.3616 25.3067 11.7892 32.0675 12.892 41.6137C12.9532 42.1435 13.4354 42.5154 13.966 42.4609ZM22.945 19.9237L40.8539 36.8147C41.5007 37.4247 42.5624 36.9505 42.5397 36.0616L41.9136 11.5652C41.9009 11.0686 41.5257 10.6534 41.03 10.6209C33.0916 10.1007 24.3856 15.2171 22.7116 18.9606C22.5622 19.2948 22.6786 19.6725 22.945 19.9237ZM43.9508 36.5993L45.1314 12.3198C45.1572 11.7888 45.5913 11.3708 46.1205 11.4222C49.8156 11.7811 57.5784 14.0949 63.0674 18.6158C63.5105 18.9807 63.5246 19.6455 63.117 20.0495L45.6535 37.3581C45.0056 38.0003 43.9065 37.5105 43.9508 36.5993ZM71.3948 45.8143L46.7512 42.6724C45.8965 42.5634 45.3133 43.5143 45.7979 44.2268L59.5897 64.505C59.9012 64.963 60.5265 65.0827 60.9665 64.7464C66.1963 60.7482 70.0513 53.7412 72.2131 47.0872C72.4038 46.5003 72.007 45.8924 71.3948 45.8143ZM73.4547 40.5715C73.2595 31.5075 69.1141 24.574 66.4967 21.5627C66.1401 21.1526 65.5205 21.1495 65.1281 21.5255L46.5703 39.3016C45.9269 39.9179 46.35 41.0045 47.2408 41.0235L72.45 41.5605C73.0061 41.5723 73.4667 41.1276 73.4547 40.5715ZM29.6292 64.5484L41.7315 45.4926C42.1243 44.874 43.027 44.8741 43.4198 45.4926L56.4095 65.947C56.6884 66.3861 56.5868 66.9672 56.1381 67.2304C51.6242 69.8774 39.7623 71.9448 29.9284 65.9002C29.466 65.6159 29.3382 65.0066 29.6292 64.5484Z" fill="#FF8A35"/>
</mask>
<g mask="url(#mask0_1_1539)">
<path d="M51.4686 64.3492C48.3018 66.44 46.0092 64.2591 40.0669 64.2984C28.1823 64.3771 22.0338 58.1731 20.1175 53.5971C14.6315 44.7143 18.7193 42.5837 17.8388 33.5021C16.7853 22.6352 30.0469 16.5999 35.5004 16.3464C38.8611 16.6537 46.4519 17.0354 49.9292 16.1037C54.2759 14.939 65.1091 24.4596 68.0162 31.4452C70.9233 38.4308 67.607 52.7226 64.2751 54.1884C58.2554 56.8367 55.427 61.7356 51.4686 64.3492Z" stroke="#FAB228" stroke-opacity="0.5" stroke-width="0.5"/>
<path d="M63.7599 30.4296C65.8233 33.3054 65.0227 40.3295 64.8232 42.8329C66.0075 51.06 59.0781 55.8094 54.8854 57.7612C46.811 63.1958 47.1878 60.9325 38.7601 62.0819C28.6756 63.4573 21.6738 52.6007 21.2386 47.5269C21.4021 44.3835 21.3547 37.3312 20.4856 34.0876C17.8367 24.2021 27.9532 17.5887 34.8921 18.517C41.8833 19.4523 52.4782 16.2545 53.9653 19.3068C56.6521 24.8215 61.1807 26.8349 63.7599 30.4296Z" stroke="#FAB228" stroke-opacity="0.5" stroke-width="0.5"/>
<path d="M29.6829 21.9635C31.8938 19.984 41.0369 20.0706 43.1502 20.2069C49.9211 18.9407 55.0124 23.3276 57.0419 27.1957C62.3525 34.6118 63.5889 34.2084 62.984 42.2107C61.9293 56.1637 50.4875 58.4449 46.2839 58.9509C43.6385 58.8607 43.1214 58.8436 40.4899 59.7177C32.4699 62.3814 23.9804 51.3083 24.1006 44.8243C24.2218 38.2915 22.1672 29.7861 23.2817 27.2032C25.0014 23.2179 26.9194 24.4379 29.6829 21.9635Z" stroke="#FAB228" stroke-opacity="0.5" stroke-width="0.5"/>
<path d="M29.4466 52.9706C27.3618 51.3164 26.0528 43.2215 25.853 41.3329C23.7076 35.5398 25.5457 34.543 24.9192 29.0168C25.7417 23.1024 34.7079 26.9116 39.244 22.5903C44.8755 18.4932 53.7075 24.4088 59.6244 32.6914C59.9456 35.0433 59.4803 38.4719 60.6517 40.6654C64.2216 47.3508 55.8547 54.5207 50.1051 55.3971C44.3123 56.28 43.2527 59.8213 35.0481 57.8346C31.2648 56.9185 32.0525 55.0383 29.4466 52.9706Z" stroke="#FAB228" stroke-opacity="0.5" stroke-width="0.5"/>
<path d="M56.7973 49.4628C55.7273 51.3741 49.5174 52.9599 48.0092 53.3705C43.5845 55.875 41.0498 54.1456 36.6422 55.381C31.7288 55.4902 34.641 51.776 29.6126 48.4647C26.1972 47.3093 25.7211 26.2137 30.0198 26.802C31.8885 26.2319 39.4435 25.0807 41.0718 23.8407C46.0342 20.0614 52.9595 25.9168 54.4273 30.473C55.9061 35.0635 58.9227 35.4589 58.387 42.3861C58.14 45.5804 58.1347 47.0737 56.7973 49.4628Z" stroke="#FAB228" stroke-opacity="0.5" stroke-width="0.5"/>
<path d="M29.4337 29.9023C30.4224 28.2996 34.1302 28.6192 37.1247 26.8657C41.0166 24.8755 43.1309 26.4533 46.9618 25.5526C51.1863 25.6377 48.5496 28.722 52.7482 31.7494C61.2987 43.0802 55.2809 51.0041 51.6098 50.3422C49.9839 50.7639 43.4524 51.4777 42.0086 52.4836C37.6085 55.5492 31.873 50.2674 30.7781 46.3003C29.675 42.3034 27.5969 41.8037 28.3093 35.8729C28.6377 33.1381 28.1979 31.9058 29.4337 29.9023Z" stroke="#FAB228" stroke-opacity="0.5" stroke-width="0.5"/>
<path d="M29.4337 29.9023C30.4224 28.2996 34.1302 28.6192 37.1247 26.8657C41.0166 24.8755 43.1309 26.4533 46.9618 25.5526C51.1863 25.6377 48.5496 28.722 52.7482 31.7494C61.2987 43.0802 55.2809 51.0041 51.6098 50.3422C49.9839 50.7639 43.4524 51.4777 42.0086 52.4836C37.6085 55.5492 31.873 50.2674 30.7781 46.3003C29.675 42.3034 27.5969 41.8037 28.3093 35.8729C28.6377 33.1381 28.1979 31.9058 29.4337 29.9023Z" stroke="#FAB228" stroke-opacity="0.5" stroke-width="0.5"/>
<path d="M51.7482 47.1372C50.9531 48.3692 48.0718 48.0613 45.7128 49.3787C42.6515 50.8661 41.0307 49.6041 38.0342 50.2443C34.7469 50.1109 36.8486 47.7518 33.6283 45.3283C27.1525 36.3717 31.9632 30.2991 34.8105 30.8728C36.0829 30.5704 41.1787 30.1187 42.3186 29.3586C45.7927 27.0422 50.1734 31.2451 50.9626 34.3508C51.7578 37.4798 53.3675 37.9018 52.7186 42.5073C52.4193 44.631 52.7421 45.5973 51.7482 47.1372Z" stroke="#FAB228" stroke-opacity="0.5" stroke-width="0.5"/>
</g>
</g>
<defs>
<filter id="filter0_d_1_1539" x="0" y="0" width="82" height="82" filterUnits="userSpaceOnUse" color-interpolation-filters="sRGB">
<feFlood flood-opacity="0" result="BackgroundImageFix"/>
<feColorMatrix in="SourceAlpha" type="matrix" values="0 0 0 0 0 0 0 0 0 0 0 0 0 0 0 0 0 0 127 0" result="hardAlpha"/>
<feOffset dx="-2" dy="1"/>
<feGaussianBlur stdDeviation="3"/>
<feColorMatrix type="matrix" values="0 0 0 0 0 0 0 0 0 0 0 0 0 0 0 0 0 0 0.25 0"/>
<feBlend mode="normal" in2="BackgroundImageFix" result="effect1_dropShadow_1_1539"/>
<feBlend mode="normal" in="SourceGraphic" in2="effect1_dropShadow_1_1539" result="shape"/>
</filter>
<radialGradient id="paint0_radial_1_1539" cx="0" cy="0" r="1" gradientUnits="userSpaceOnUse" gradientTransform="translate(43.0589 40.1421) rotate(-15) scale(30.1421 30.0589)">
<stop stop-color="#FFA73F"/>
<stop offset="1" stop-color="#FFD335"/>
</radialGradient>
</defs>
</svg>
