<svg width="12" height="12" viewBox="0 0 12 12" fill="none" xmlns="http://www.w3.org/2000/svg">
<g id="Close" clip-path="url(#clip0_4_1588)">
<path id="Vector" d="M7.14991 6.09065C7.13827 6.07904 7.12904 6.06525 7.12273 6.05006C7.11643 6.03487 7.11319 6.01859 7.11319 6.00215C7.11319 5.98571 7.11643 5.96943 7.12273 5.95424C7.12904 5.93906 7.13827 5.92526 7.14991 5.91365L11.7814 1.28265C11.922 1.14182 12.001 0.950894 12.0008 0.751871C12.0007 0.552848 11.9215 0.362032 11.7807 0.221401C11.6398 0.0807699 11.4489 0.00184318 11.2499 0.00198383C11.0509 0.00212448 10.86 0.0813209 10.7194 0.222151L6.08841 4.85115C6.0768 4.86279 6.06301 4.87203 6.04782 4.87833C6.03263 4.88463 6.01635 4.88787 5.99991 4.88787C5.98347 4.88787 5.96719 4.88463 5.952 4.87833C5.93682 4.87203 5.92302 4.86279 5.91141 4.85115L1.28041 0.222151C1.21078 0.152485 1.1281 0.0972159 1.03711 0.0595002C0.946118 0.0217845 0.848588 0.00236059 0.750088 0.00233737C0.551159 0.00229049 0.360358 0.0812698 0.219661 0.221901C0.0789636 0.362532 -0.000105683 0.553295 -0.000152567 0.752224C-0.000199451 0.951153 0.0787799 1.14195 0.219411 1.28265L4.84991 5.91365C4.86155 5.92526 4.87079 5.93906 4.87709 5.95424C4.88339 5.96943 4.88664 5.98571 4.88664 6.00215C4.88664 6.01859 4.88339 6.03487 4.87709 6.05006C4.87079 6.06525 4.86155 6.07904 4.84991 6.09065L0.219411 10.7222C0.149778 10.7918 0.0945478 10.8745 0.056875 10.9655C0.0192022 11.0565 -0.000175782 11.1541 -0.000152567 11.2526C-0.000105683 11.4515 0.0789636 11.6423 0.219661 11.7829C0.289327 11.8525 0.372027 11.9078 0.463038 11.9454C0.554048 11.9831 0.651588 12.0025 0.750088 12.0025C0.949017 12.0024 1.13978 11.9233 1.28041 11.7827L5.91141 7.15115C5.92302 7.13951 5.93682 7.13027 5.952 7.12397C5.96719 7.11767 5.98347 7.11443 5.99991 7.11443C6.01635 7.11443 6.03263 7.11767 6.04782 7.12397C6.06301 7.13027 6.0768 7.13951 6.08841 7.15115L10.7194 11.7827C10.86 11.9233 11.0508 12.0024 11.2497 12.0025C11.4487 12.0025 11.6395 11.9235 11.7802 11.7829C11.9209 11.6423 11.9999 11.4515 12 11.2526C12 11.0536 11.921 10.8628 11.7804 10.7222L7.14991 6.09065Z" fill="#C2C2D9"/>
</g>
<defs>
<clipPath id="clip0_4_1588">
<rect width="12" height="12" fill="white"/>
</clipPath>
</defs>
</svg>
