<svg width="24" height="24" viewBox="0 0 24 24" fill="none" xmlns="http://www.w3.org/2000/svg">
<path d="M13.6773 10.546L19.592 10.546C19.7765 10.546 19.9535 10.6193 20.084 10.7498C20.2145 10.8803 20.2878 11.0572 20.2878 11.2418L20.2878 16.8085C20.2878 16.993 20.2145 17.17 20.084 17.3005C19.9535 17.431 19.7765 17.5043 19.592 17.5043L14.3732 17.5043C14.1886 17.5043 14.0116 17.431 13.8811 17.3005C13.7507 17.17 13.6773 16.993 13.6773 16.8085L13.6773 9.15428C13.6773 8.23154 14.0439 7.34659 14.6964 6.69412C15.3488 6.04164 16.2338 5.67509 17.1565 5.67509" stroke="white" stroke-width="2" stroke-linecap="round" stroke-linejoin="round"/>
<path d="M3.58769 10.546L9.50231 10.546C9.68686 10.546 9.86385 10.6193 9.99434 10.7498C10.1248 10.8803 10.1982 11.0572 10.1982 11.2418L10.1982 16.8085C10.1982 16.993 10.1248 17.17 9.99434 17.3005C9.86385 17.431 9.68686 17.5043 9.50231 17.5043L4.28353 17.5043C4.09898 17.5043 3.92199 17.431 3.79149 17.3005C3.661 17.17 3.58769 16.993 3.58769 16.8085L3.58769 9.15428C3.58769 8.23154 3.95424 7.34659 4.60672 6.69412C5.25919 6.04164 6.14414 5.67509 7.06688 5.67509" stroke="white" stroke-width="2" stroke-linecap="round" stroke-linejoin="round"/>
</svg>
