<svg width="17" height="17" viewBox="0 0 17 17" fill="none" xmlns="http://www.w3.org/2000/svg">
<path d="M8.29571 12.4061L11.4479 14.4032C11.8509 14.6585 12.3511 14.2788 12.2316 13.8085L11.3208 10.2259C11.2952 10.1261 11.2982 10.0211 11.3296 9.92293C11.361 9.8248 11.4194 9.73751 11.4982 9.67111L14.3249 7.31839C14.6963 7.00926 14.5046 6.39285 14.0274 6.36188L10.3359 6.1223C10.2365 6.11519 10.1411 6.07999 10.0609 6.02079C9.98071 5.96158 9.91898 5.88081 9.88291 5.78788L8.50614 2.32082C8.46871 2.22219 8.40217 2.13727 8.31534 2.07735C8.22852 2.01743 8.12552 1.98534 8.02002 1.98534C7.91453 1.98534 7.81153 2.01743 7.7247 2.07735C7.63787 2.13727 7.57133 2.22219 7.53391 2.32082L6.15714 5.78788C6.12106 5.88081 6.05933 5.96158 5.97914 6.02079C5.89894 6.07999 5.80357 6.11519 5.70414 6.1223L2.01265 6.36188C1.53545 6.39285 1.34375 7.00926 1.71517 7.31839L4.54187 9.67111C4.62065 9.73751 4.67908 9.8248 4.71046 9.92293C4.74183 10.0211 4.74487 10.1261 4.71922 10.2259L3.87461 13.5484C3.73113 14.1128 4.33145 14.5684 4.81497 14.262L7.74433 12.4061C7.82672 12.3537 7.92236 12.3258 8.02002 12.3258C8.11769 12.3258 8.21332 12.3537 8.29571 12.4061Z" fill="#EBBE51"/>
</svg>
