<svg width="94" height="94" viewBox="0 0 94 94" fill="none" xmlns="http://www.w3.org/2000/svg">
<g id="Frame 1199">
<g clip-path="url(#clip0_4_1570)">
<rect x="0.223389" y="0.304962" width="93.06" height="93.06" rx="46.53" fill="url(#paint0_linear_4_1570)"/>
<g id="Group 17">
<path id="Vector" d="M80.0571 79.0418C77.1437 71.2074 59.3352 67.4812 56.2161 65.2141C52.2157 62.3007 53.4888 52.6596 53.4888 52.6596L46.9373 52.831L40.3858 52.6596C40.3858 52.6596 41.6589 62.3007 37.6585 65.2141C34.5639 67.4812 16.731 71.2172 13.8176 79.0418C12.0484 83.8258 10.7096 88.7582 9.81715 93.7802H84.0575C83.165 88.7582 81.8263 83.8258 80.0571 79.0418Z" fill="#FFAC9D"/>
<path id="Vector_2" d="M39.1715 63.4171C42.2416 63.1037 45.3215 62.4819 47.9852 60.9689C49.8951 59.8942 51.6816 58.6135 53.3125 57.1496C53.2539 55.6443 53.3112 54.1366 53.4839 52.64L46.9324 52.8114L40.3809 52.64C40.3809 52.64 41.2917 59.5195 39.1715 63.4171Z" fill="#CC887F"/>
<path id="Vector_3" d="M80.5909 78.934C78.3238 72.8428 67.0962 69.2097 60.6622 66.8202C57.8615 70.047 52.8964 72.2063 47.2312 72.2063C41.566 72.2063 36.5961 70.0567 33.8002 66.8202C27.3662 69.2097 16.1337 72.8428 13.8666 78.934C12.0829 83.7525 10.7343 88.7211 9.83685 93.7802H84.606C83.7117 88.7219 82.368 83.7535 80.5909 78.934Z" fill="#D5EBFF"/>
<path id="Vector_4" d="M47.187 74.6937C54.375 74.6937 60.5397 71.8342 63.1838 67.7505L60.6425 66.8202C57.8417 70.047 52.8767 72.2063 47.2115 72.2063C41.5463 72.2063 36.5764 70.0567 33.7805 66.8202L31.2 67.7652C33.849 71.8391 40.0088 74.6937 47.187 74.6937Z" fill="#85B7E0"/>
<path id="Vector_5" d="M35.9399 37.6225C34.8773 34.3419 32.3752 35.1008 32.1402 35.1743C31.9052 35.2477 29.3052 35.5905 29.7507 39.0082C30.1963 42.4259 32.199 44.3111 34.0694 43.7627C35.9937 43.464 37.0122 40.9227 35.9399 37.6225Z" fill="#CC887F"/>
<path id="Vector_6" d="M57.1172 37.6225C58.1748 34.3419 60.6818 35.1008 60.9169 35.1743C61.1519 35.2477 63.7519 35.5905 63.3063 39.0082C62.8608 42.4259 60.8581 44.3111 58.9877 43.7627C57.0878 43.464 56.0547 40.9227 57.1172 37.6225Z" fill="#CC887F"/>
<path id="Vector_7" d="M59.7954 32.4616C58.4831 18.0709 47.5542 18.8739 46.5113 18.9865C45.4781 18.8739 34.5394 18.0709 33.2271 32.4616C31.91 46.9356 38.3586 56.3907 46.5113 55.8668C54.6639 56.3907 61.1125 46.9356 59.7954 32.4616Z" fill="#FFAC9D"/>
<path id="Vector_8" d="M48.0732 37.3728C48.1515 37.6029 48.2103 37.8379 48.2739 38.073C48.3376 38.308 48.3963 38.5626 48.4502 38.7732C48.5579 39.2628 48.6509 39.7133 48.7342 40.1882C48.8174 40.6632 48.8909 41.1333 48.9496 41.6082C49.0084 42.0832 49.0623 42.5875 49.1063 43.0429V43.1653L49.028 43.2338C48.7375 43.4787 48.4437 43.7186 48.1466 43.9536C47.843 44.1838 47.5443 44.4433 47.2261 44.6391C47.4562 44.3307 47.7157 44.0516 47.9605 43.7529C48.2054 43.4542 48.4502 43.1898 48.7293 42.9156L48.6607 43.1016C48.5677 42.612 48.4796 42.1615 48.411 41.6866C48.3425 41.2116 48.2739 40.7366 48.2201 40.2568C48.1662 39.7769 48.1221 39.302 48.0927 38.8221C48.0927 38.5822 48.0683 38.3325 48.0683 38.0975C48.0683 37.8624 48.0634 37.6176 48.0732 37.3728Z" fill="#CC887F"/>
<path id="Vector_9" d="M40.1755 46.7544L53.1609 46.6173C53.1609 46.6173 47.9658 51.7292 40.1755 46.7544Z" fill="white"/>
<path id="Vector_10" d="M43.5049 49.3642C43.5049 49.3642 43.6469 49.3936 43.8819 49.4573C44.2036 49.5581 44.5305 49.6414 44.8612 49.707C45.0669 49.7462 45.2823 49.7804 45.5125 49.8294C45.7537 49.8716 45.9974 49.8977 46.242 49.9077C46.5015 49.9439 46.7638 49.9554 47.0255 49.942C47.2899 49.942 47.5592 49.942 47.8285 49.9126L48.6217 49.7902C48.8783 49.7448 49.1306 49.6776 49.3758 49.5895C49.6131 49.5341 49.8444 49.4554 50.0662 49.3544L50.6733 49.0851C50.8445 49.0125 51.0084 48.924 51.163 48.8207L51.54 48.6004C51.7555 48.4731 51.8828 48.4094 51.8828 48.4094L51.6086 48.6836L51.2805 48.9872C51.1447 49.1296 50.9917 49.2546 50.8251 49.3593C50.644 49.472 50.4481 49.5993 50.2327 49.7217C50.0114 49.8605 49.7726 49.9692 49.5227 50.0448L49.1358 50.1917L48.9351 50.2652L48.7245 50.3044L47.8726 50.4561C47.5837 50.4561 47.2899 50.4561 47.0059 50.4561C46.726 50.4569 46.4469 50.4274 46.1735 50.368C45.9146 50.3395 45.6589 50.287 45.4096 50.2113C45.1746 50.1379 44.9494 50.0595 44.7486 49.9861C44.5639 49.9283 44.3865 49.8494 44.2198 49.7511L43.8281 49.5405L43.5049 49.3642Z" fill="#CC887F"/>
<path id="Vector_11" d="M39.7052 37.5882C39.7052 38.6752 40.1067 39.5468 40.6012 39.5468C41.0958 39.5468 41.5022 38.6703 41.5022 37.5882C41.5022 36.5061 41.1007 35.6296 40.6012 35.6296C40.1018 35.6296 39.7052 36.5061 39.7052 37.5882Z" fill="#352C38"/>
<path id="Vector_12" d="M52.0495 37.5882C52.0495 38.6752 52.4559 39.5468 52.9504 39.5468C53.445 39.5468 53.8465 38.6703 53.8465 37.5882C53.8465 36.5061 53.445 35.6296 52.9504 35.6296C52.4559 35.6296 52.0495 36.5061 52.0495 37.5882Z" fill="#352C38"/>
<path id="Vector_13" d="M37.5017 34.381C37.6476 34.0032 37.8655 33.6573 38.1432 33.3626C38.2738 33.2158 38.4145 33.0784 38.5643 32.9513C38.7365 32.8056 38.9217 32.6762 39.1176 32.5644C39.329 32.4403 39.552 32.3369 39.7835 32.256C40.0323 32.1785 40.2882 32.126 40.5473 32.0993C40.6796 32.0993 40.8118 32.0993 40.944 32.0993C41.0762 32.0993 41.2084 32.1287 41.3357 32.1482C41.5861 32.1857 41.8301 32.2583 42.0604 32.3637C42.2717 32.4592 42.472 32.5774 42.6577 32.7162C42.8217 32.8338 42.9712 32.9702 43.1033 33.1226C43.2238 33.2377 43.3291 33.3677 43.4167 33.5095C43.4999 33.6319 43.5587 33.7494 43.6125 33.8375C43.7105 34.0236 43.7594 34.1313 43.7594 34.1313C43.7594 34.1313 43.6468 34.0823 43.4656 33.9844C43.3726 33.9355 43.2649 33.8767 43.1474 33.8032C43.0171 33.7295 42.883 33.6625 42.7459 33.6025C42.5877 33.5239 42.4241 33.4568 42.2562 33.4017C42.0864 33.3366 41.9132 33.2811 41.7372 33.2353C41.5553 33.1928 41.3702 33.165 41.1839 33.152H40.9048L40.6208 33.1765C40.428 33.1898 40.2365 33.2176 40.0479 33.2597C39.8667 33.3234 39.6709 33.3528 39.4946 33.4311C39.3169 33.4821 39.142 33.5426 38.9707 33.6123C38.7993 33.6759 38.6475 33.7641 38.481 33.8326L38.0746 34.0481L37.7564 34.2194L37.5017 34.381Z" fill="#352C38"/>
<path id="Vector_14" d="M49.9339 34.381C50.0822 34.0044 50.2997 33.659 50.5754 33.3626C50.7065 33.2147 50.8489 33.0771 51.0013 32.9513C51.1709 32.8045 51.3546 32.675 51.5498 32.5644C51.9817 32.292 52.4713 32.1243 52.9795 32.0748C53.1117 32.0748 53.2439 32.0748 53.3761 32.0748C53.5083 32.0748 53.6405 32.1042 53.7679 32.1238C54.0199 32.1613 54.2655 32.2338 54.4974 32.3392C54.7066 32.4359 54.9052 32.554 55.0899 32.6918C55.2549 32.808 55.4046 32.9446 55.5355 33.0982C55.6572 33.2121 55.7627 33.3422 55.8489 33.485C55.9321 33.6074 55.9957 33.7249 56.0447 33.813C56.0988 33.9084 56.1478 34.0064 56.1916 34.1068C56.1916 34.1068 56.079 34.0579 55.8978 33.9599C55.8048 33.911 55.6971 33.8522 55.5844 33.7788C55.4718 33.7053 55.32 33.6515 55.178 33.578C55.0207 33.4975 54.8569 33.4304 54.6884 33.3773C54.5188 33.3115 54.3455 33.2559 54.1694 33.2108C54.002 33.1689 53.8318 33.1395 53.6601 33.1226H53.381L53.097 33.1471C52.9043 33.1605 52.7127 33.1883 52.5241 33.2304C52.343 33.294 52.1471 33.3234 51.9708 33.4017C51.7927 33.4646 51.6178 33.5366 51.4469 33.6172C51.2755 33.6808 51.1189 33.769 50.9573 33.8375L50.5509 34.053L50.2326 34.2244L49.9339 34.381Z" fill="#352C38"/>
<path id="Vector_15" d="M33.2712 39.5517C33.2712 39.5517 29.8437 25.3519 31.8023 21.2732C33.7608 17.1944 36.0328 18.4969 36.0328 18.4969C36.0328 18.4969 39.1323 10.0113 45.6593 11.6418C52.1863 13.2723 55.9419 16.2151 59.3694 13.2772C59.3694 13.2772 59.3694 15.887 57.4108 17.0279C57.4108 17.0279 61.4945 17.0279 63.125 13.1107C63.125 13.1107 65.5732 21.4886 60.1871 24.4265C60.1871 24.4265 60.5886 34.8854 60.1871 38.7389L58.7182 38.5724C58.7182 38.5724 57.9005 33.0247 57.4108 26.0081C57.4108 26.0081 48.9252 30.5765 38.6426 22.5805C38.6426 22.5805 40.1116 27.9667 34.2358 31.3942L34.7255 38.9005L33.2712 39.5517Z" fill="#965450"/>
<path id="Vector_16" d="M54.1743 27.0363C51.8304 26.8795 49.5215 26.3847 47.3192 25.5674C42.9124 23.8683 39.1127 18.8445 38.8092 13.9725C37.6244 15.3053 36.6845 16.837 36.0329 18.4969C36.0329 18.4969 33.7462 17.1944 31.7876 21.2732C29.829 25.3519 33.2566 39.5517 33.2566 39.5517L34.7255 38.9005L34.2358 31.3942C40.1116 27.9667 38.6427 22.5805 38.6427 22.5805C45.0717 27.5651 50.781 27.668 54.1743 27.0363Z" fill="#76413B"/>
</g>
</g>
</g>
<defs>
<linearGradient id="paint0_linear_4_1570" x1="0.223389" y1="46.835" x2="93.2834" y2="46.835" gradientUnits="userSpaceOnUse">
<stop stop-color="#A1C4FD"/>
<stop offset="1" stop-color="#C2E9FB"/>
</linearGradient>
<clipPath id="clip0_4_1570">
<rect x="0.223389" y="0.304962" width="93.06" height="93.06" rx="46.53" fill="white"/>
</clipPath>
</defs>
</svg>
